<svg xmlns="http://www.w3.org/2000/svg" viewBox="0 0 48 48"><title>26-law</title><g id="_26-law" data-name="26-law"><path d="M4.989,39c-.158,0-.318-.008-.477-.023A5.133,5.133,0,0,1,0,33.828V1A1,1,0,0,1,1,0H11a5.006,5.006,0,0,1,5,5H39a3,3,0,0,1,3,3V20H40V11H11a1,1,0,0,0-1,1V34a5,5,0,0,1-5.011,5ZM2,2V33.828a3.118,3.118,0,0,0,2.7,3.158A3,3,0,0,0,8,34V12a3,3,0,0,1,3-3H40V8a1,1,0,0,0-1-1H15a1,1,0,0,1-1-1V5a3,3,0,0,0-3-3Z"/><path d="M24,6H22V5a3,3,0,0,0-3-3H11V0h8a5.006,5.006,0,0,1,5,5Z"/><rect x="5" y="37" width="6" height="2"/><path d="M19,40a7.008,7.008,0,0,1-7-7,1,1,0,0,1,1-1H25a1,1,0,0,1,1,1A7.008,7.008,0,0,1,19,40Zm-4.9-6a5,5,0,0,0,9.8,0Z"/><path d="M24.143,33.515,19,24.943l-5.143,8.572-1.714-1.03,6-10a1.04,1.04,0,0,1,1.714,0l6,10Z"/><path d="M41,40a7.008,7.008,0,0,1-7-7,1,1,0,0,1,1-1H47a1,1,0,0,1,1,1A7.008,7.008,0,0,1,41,40Zm-4.9-6a5,5,0,0,0,9.8,0Z"/><path d="M46.143,33.515,41,24.943l-5.143,8.572-1.714-1.03,6-10a1.04,1.04,0,0,1,1.714,0l6,10Z"/><rect x="19" y="22" width="22" height="2"/><path d="M30,20a3,3,0,1,1,3-3A3,3,0,0,1,30,20Zm0-4a1,1,0,1,0,1,1A1,1,0,0,0,30,16Z"/><rect x="29" y="19" width="2" height="24"/><path d="M38,48H22a1,1,0,0,1-1-1V45a3,3,0,0,1,3-3H36a3,3,0,0,1,3,3v2A1,1,0,0,1,38,48ZM23,46H37V45a1,1,0,0,0-1-1H24a1,1,0,0,0-1,1Z"/></g></svg>